<svg viewBox="0 0 800 600" xmlns="http://www.w3.org/2000/svg">
  <!-- Modern Coffee Cup with Handle -->
  <ellipse cx="200" cy="520" rx="45" ry="15" fill="none" stroke="currentColor" stroke-width="2.5" opacity="0.8"/>
  <rect x="155" y="520" width="90" height="35" rx="22" fill="none" stroke="currentColor" stroke-width="2.5" opacity="0.8"/>
  <path d="M245 535 Q265 525 255 515" fill="none" stroke="currentColor" stroke-width="2" opacity="0.7"/>
  
  <!-- Elegant Steam Lines -->
  <path d="M200 505 Q195 485 200 465 Q205 485 200 505" fill="none" stroke="currentColor" stroke-width="1.5" opacity="0.4"/>
  <path d="M220 505 Q215 485 220 465 Q225 485 220 505" fill="none" stroke="currentColor" stroke-width="1.5" opacity="0.4"/>
  <path d="M180 505 Q185 485 180 465 Q175 485 180 505" fill="none" stroke="currentColor" stroke-width="1.5" opacity="0.4"/>
  
  <!-- Modern Table with Perspective -->
  <rect x="120" y="555" width="160" height="8" fill="none" stroke="currentColor" stroke-width="2" opacity="0.6"/>
  <rect x="125" y="555" width="150" height="8" fill="none" stroke="currentColor" stroke-width="1" opacity="0.3"/>
  
  <!-- Coffee Beans with Detail -->
  <ellipse cx="450" cy="180" rx="12" ry="20" fill="none" stroke="currentColor" stroke-width="2" opacity="0.7" transform="rotate(25 450 180)"/>
  <path d="M445 175 Q450 180 455 175" stroke="currentColor" stroke-width="1" opacity="0.5" fill="none"/>
  <ellipse cx="470" cy="200" rx="10" ry="16" fill="none" stroke="currentColor" stroke-width="1.5" opacity="0.6" transform="rotate(-15 470 200)"/>
  <ellipse cx="430" cy="200" rx="8" ry="14" fill="none" stroke="currentColor" stroke-width="1.5" opacity="0.5" transform="rotate(45 430 200)"/>
  
  <!-- Modern Plant with Leaves -->
  <ellipse cx="720" cy="140" rx="25" ry="12" fill="none" stroke="currentColor" stroke-width="2" opacity="0.7"/>
  <ellipse cx="700" cy="150" rx="20" ry="10" fill="none" stroke="currentColor" stroke-width="2" opacity="0.6"/>
  <ellipse cx="740" cy="150" rx="18" ry="9" fill="none" stroke="currentColor" stroke-width="2" opacity="0.6"/>
  <rect x="715" y="160" width="10" height="35" fill="none" stroke="currentColor" stroke-width="2" opacity="0.5"/>
  <ellipse cx="720" cy="195" rx="15" ry="8" fill="none" stroke="currentColor" stroke-width="1.5" opacity="0.4"/>
  
  <!-- Coffee Grinder -->
  <rect x="550" y="300" width="40" height="60" rx="5" fill="none" stroke="currentColor" stroke-width="2" opacity="0.6"/>
  <ellipse cx="570" cy="300" rx="20" ry="8" fill="none" stroke="currentColor" stroke-width="2" opacity="0.6"/>
  <rect x="565" y="310" width="10" height="40" fill="none" stroke="currentColor" stroke-width="1.5" opacity="0.5"/>
  <circle cx="570" cy="360" r="8" fill="none" stroke="currentColor" stroke-width="1.5" opacity="0.4"/>
  
  <!-- Coffee Cup on Saucer -->
  <ellipse cx="650" cy="400" rx="35" ry="8" fill="none" stroke="currentColor" stroke-width="2" opacity="0.7"/>
  <rect x="615" y="400" width="70" height="25" rx="12" fill="none" stroke="currentColor" stroke-width="2" opacity="0.7"/>
  <path d="M685 410 Q700 405 695 395" fill="none" stroke="currentColor" stroke-width="1.5" opacity="0.6"/>
  
  <!-- Coffee Pour -->
  <path d="M570 310 Q575 320 580 330 Q585 340 590 350" fill="none" stroke="currentColor" stroke-width="1.5" opacity="0.5"/>
  <path d="M575 315 Q580 325 585 335" fill="none" stroke="currentColor" stroke-width="1" opacity="0.4"/>
  
  <!-- Coffee Machine -->
  <rect x="300" y="350" width="80" height="50" rx="8" fill="none" stroke="currentColor" stroke-width="2" opacity="0.6"/>
  <rect x="310" y="360" width="60" height="30" fill="none" stroke="currentColor" stroke-width="1.5" opacity="0.5"/>
  <circle cx="340" cy="375" r="8" fill="none" stroke="currentColor" stroke-width="1.5" opacity="0.4"/>
  <rect x="335" y="400" width="10" height="15" fill="none" stroke="currentColor" stroke-width="1.5" opacity="0.4"/>
  
  <!-- Coffee Steam from Machine -->
  <path d="M340 350 Q335 340 340 330" fill="none" stroke="currentColor" stroke-width="1" opacity="0.3"/>
  <path d="M350 350 Q345 340 350 330" fill="none" stroke="currentColor" stroke-width="1" opacity="0.3"/>
  
  <!-- Coffee Cup with Art -->
  <ellipse cx="150" cy="450" rx="30" ry="6" fill="none" stroke="currentColor" stroke-width="2" opacity="0.7"/>
  <rect x="120" y="450" width="60" height="20" rx="10" fill="none" stroke="currentColor" stroke-width="2" opacity="0.7"/>
  <path d="M180 455 Q190 450 185 440" fill="none" stroke="currentColor" stroke-width="1.5" opacity="0.6"/>
  <!-- Coffee Art -->
  <path d="M140 460 Q145 455 150 460 Q155 465 150 470" fill="none" stroke="currentColor" stroke-width="1" opacity="0.5"/>
  
  <!-- Coffee Beans Scattered -->
  <ellipse cx="500" cy="500" rx="6" ry="10" fill="none" stroke="currentColor" stroke-width="1" opacity="0.4" transform="rotate(30 500 500)"/>
  <ellipse cx="520" cy="480" rx="5" ry="8" fill="none" stroke="currentColor" stroke-width="1" opacity="0.4" transform="rotate(-20 520 480)"/>
  <ellipse cx="480" cy="520" rx="4" ry="7" fill="none" stroke="currentColor" stroke-width="1" opacity="0.4" transform="rotate(60 480 520)"/>
  
  <!-- Coffee Cup with Saucer -->
  <ellipse cx="600" cy="200" rx="40" ry="8" fill="none" stroke="currentColor" stroke-width="2" opacity="0.7"/>
  <rect x="560" y="200" width="80" height="30" rx="15" fill="none" stroke="currentColor" stroke-width="2" opacity="0.7"/>
  <path d="M640 210 Q655 205 650 195" fill="none" stroke="currentColor" stroke-width="1.5" opacity="0.6"/>
  
  <!-- Coffee Pouring -->
  <path d="M570 200 Q575 210 580 220 Q585 230 590 240" fill="none" stroke="currentColor" stroke-width="1.5" opacity="0.5"/>
  <path d="M575 205 Q580 215 585 225" fill="none" stroke="currentColor" stroke-width="1" opacity="0.4"/>
  
  <!-- Coffee Cup with Handle -->
  <ellipse cx="250" cy="300" rx="35" ry="6" fill="none" stroke="currentColor" stroke-width="2" opacity="0.7"/>
  <rect x="215" y="300" width="70" height="25" rx="12" fill="none" stroke="currentColor" stroke-width="2" opacity="0.7"/>
  <path d="M285 310 Q300 305 295 295" fill="none" stroke="currentColor" stroke-width="1.5" opacity="0.6"/>
  
  <!-- Coffee Steam -->
  <path d="M250 295 Q245 285 250 275" fill="none" stroke="currentColor" stroke-width="1" opacity="0.3"/>
  <path d="M260 295 Q255 285 260 275" fill="none" stroke="currentColor" stroke-width="1" opacity="0.3"/>
  <path d="M240 295 Q245 285 240 275" fill="none" stroke="currentColor" stroke-width="1" opacity="0.3"/>
</svg>